<?xml version="1.0" standalone="no"?>
<!DOCTYPE svg PUBLIC "-//W3C//DTD SVG 20010904//EN"
 "http://www.w3.org/TR/2001/REC-SVG-20010904/DTD/svg10.dtd">
<svg version="1.0" xmlns="http://www.w3.org/2000/svg"
 width="260.000000pt" height="260.000000pt" viewBox="0 0 260.000000 260.000000"
 preserveAspectRatio="xMidYMid meet">
<metadata>
Created by potrace 1.11, written by Peter Selinger 2001-2013
</metadata>
<g transform="translate(0.000000,260.000000) scale(0.100000,-0.100000)"
fill="#000000" stroke="none">
<path d="M105 2080 c-1 -3 -2 -353 -2 -777 l0 -773 157 0 158 0 0 302 c0 167
1 312 1 323 1 20 8 20 314 20 l312 0 0 -323 0 -322 158 0 157 0 0 778 0 777
-155 0 c-131 0 -155 -2 -156 -15 0 -8 -1 -158 -1 -332 0 -289 -2 -318 -17
-319 -9 0 -150 -1 -314 -2 l-297 -2 -1 30 c0 17 -1 167 -2 335 l-2 305 -153 0
c-85 0 -155 -2 -157 -5z"/>
<path d="M2183 2076 c-4 -6 -7 -1426 -4 -1528 1 -16 15 -18 156 -18 l155 0 0
778 0 778 -151 -1 c-83 0 -153 -4 -156 -9z"/>
<path d="M1603 1603 l2 -138 145 -1 c80 0 150 1 155 3 7 2 11 53 10 136 l0
132 -157 3 -156 2 1 -137z"/>
<path d="M1605 800 c-1 -3 -3 -65 -3 -137 l-1 -133 158 0 157 0 -2 133 c-1 72
-2 134 -3 137 -1 7 -302 7 -306 0z"/>
</g>
</svg>
